<svg width="100" height="100" viewBox="0 0 100 100" fill="none" xmlns="http://www.w3.org/2000/svg">
<rect width="100" height="100" rx="15" fill="#D3469D"/>
<rect width="14" height="14" transform="matrix(1 0 0 -1 29 71)" fill="white"/>
<rect width="14" height="14" transform="matrix(1 0 0 -1 57.2258 71)" fill="white"/>
<rect width="14" height="14" transform="matrix(1 0 0 -1 15 57)" fill="white"/>
<rect width="14" height="14" transform="matrix(1 0 0 -1 43.2258 57)" fill="white"/>
<rect width="14" height="14" transform="matrix(1 0 0 -1 71.2258 57)" fill="white"/>
<rect width="14" height="14" transform="matrix(1 0 0 -1 29 43)" fill="white"/>
<rect width="14" height="14" transform="matrix(1 0 0 -1 57.2258 43)" fill="white"/>
</svg>
